<svg xmlns="http://www.w3.org/2000/svg" viewBox="0 0 1080 1080"><defs><style>.cls-1{fill:#f95008;}</style></defs><g id="Layer_2" data-name="Layer 2"><path class="cls-1" d="M500.18,726.32c.69,26.54-20.94,49.37-47.44,50.07C425,777.12,402,755.9,401.39,729c-.63-27.93,20.35-50.1,48.33-51.07C476.66,677,499.47,698.88,500.18,726.32Zm-49.39-31.85a33.2,33.2,0,0,0-33.09,32.41c-.25,17.84,15,33.17,33.05,33.16,17.86,0,32.87-14.82,33-32.52A32.92,32.92,0,0,0,450.79,694.47Z"/><path class="cls-1" d="M949.39,678.13H965v41c2.38-2.09,3.73-3.1,4.88-4.3,10.14-10.61,20.44-21.09,30.26-32,3.51-3.89,7.13-5.49,12.23-5.06,4.42.36,8.89.07,15.33.07l-46.74,49.3,47.22,49.24c-8,0-14.42.26-20.84-.16-1.86-.13-3.87-2-5.34-3.45q-15.79-16.21-31.34-32.65c-1.36-1.43-2.17-3.37-3.23-5.08l-2,1.36V776H949.39Z"/><path class="cls-1" d="M260.81,760h44.47v15.95H244.65V678.37h60.61v16H260.89V719h32.37c0,5.62,5.24,10.59,5.24,16.36H260.81Z"/><path class="cls-1" d="M776.94,751.16l10.7,11.2c-15.12,18-47,18.7-66.25,1.8a49,49,0,0,1-3.56-70.47c18.37-19.82,50.28-21,69.86-2.14l-10.9,11.67c-8.59-7-18.21-10.26-29.08-8.15a32.37,32.37,0,0,0-20.2,12.82c-9.39,12.48-8.21,30.54,2.8,42C739.56,759.52,758.17,765.84,776.94,751.16Z"/><path class="cls-1" d="M803.53,753.46c2.66-.54,4.88-.87,7-1.45,4.9-1.3,8.93-1.8,12.06,4,2.22,4.07,12,5.55,16.31,2.47,3.09-2.18,6-6.32,6.55-9.95.88-5.91-3.4-9.51-9-11.45s-11.16-4-16.59-6.31c-12.11-5.23-18.75-17.11-16.81-29.55,1.9-12.22,11.56-21.26,24.47-22.92,14.65-1.87,25.69,3.32,31.5,15.16l-13.6,6.75.3-1.86c-5-1.28-10-3.21-15.14-3.67-5.77-.52-9.72,2.93-11,8.59s1.45,10,6.68,12.26c6.72,2.93,13.83,5,20.42,8.21,10.32,5,15.5,13.61,15.36,25-.13,11.17-5.42,19.47-15.45,24.42C828.54,782.1,807.48,772.6,803.53,753.46Z"/><path class="cls-1" d="M659,694.49H637.42V776.1H621.11V694.63H599.48v-16.4H659Z"/><path class="cls-1" d="M877,678.15h15.53v81.6h41.29v16.16H877Z"/><path class="cls-1" d="M143.33,776.2H128V678.34h15.35Z"/><path class="cls-1" d="M674.36,678.13h15.38V776H674.36Z"/><path class="cls-1" d="M216.16,722.94c.7-1.39,1.36-2.62,1.94-3.88,8.43-18.37-2.71-38.78-23-40.65-11.92-1.1-24-.2-36.39-.2v98c5.32,0,10.56,0,15.78.1V748.1h0c0-3.14,0-6.21.2-9.25.07-1.25,2.22-3.36,3.47-3.4,7.73-.29,15.49-.41,23.2,0,7.44.41,12.39,6,12.08,12.66s-5.15,11.36-12.47,11.6c-5.24.16-10.51.15-16,.11l-5.09,16.57c7.65.05,15.23,0,22.79-.28,16-.64,27.54-13.73,27.07-29.64C229.5,736.32,224.41,728.84,216.16,722.94ZM194,718.65c-6.21.53-12.49.12-19.08.12V695c7,0,14.07-.64,21,.21,5.45.67,9,6.91,8.53,12.44S199.78,718.15,194,718.65Z"/><path class="cls-1" d="M51.84,678.14V776h16V735.39h37.53L101,719H68.11V694.38H112.5V678.14Z"/><path class="cls-1" d="M369,735.22c2.51-1.09,4.57-1.89,6.54-2.86a28.71,28.71,0,0,0,16.05-28.52c-1.15-11.69-9.85-23.5-21.4-24.52-16.35-1.44-32.92-.36-49.41-.36v97.25h16V736.3h.06l.22-22.71v-19c9.5,0,18.66-.3,27.79.11,6.19.28,10.8,5.91,10.8,12s-4.54,11.71-10.79,12c-6,.32-12,.27-18.16.2l-4.21,16.27c5.4-.72,7,.83,11.09,6.75,7.07,10.22,14.1,20.47,21.24,30.65,1,1.42,2.39,3.51,3.71,3.6,5.93.39,11.9.17,18.84.17Z"/><path class="cls-1" d="M560.24,678.67c-14.82-1.12-29.78-.45-44.68-.53-.3,0-.6.49-.79.65V776h15.84V735.08h.13l.22-21.33V694.88c9.64,0,19.32-.54,28.91.2,5.54.44,9,6.41,8.75,12.23s-4.49,11.11-10.6,11.43c-5.18.28-10.38.27-15.65.22l-3.45,16.2c6.75.1,13.28.22,19.76-.18,14.86-.91,26-13,26.38-27.81C585.42,692.86,574.88,679.78,560.24,678.67Z"/><path class="cls-1" d="M530.61,303.45A171.51,171.51,0,1,0,702.11,475,171.51,171.51,0,0,0,530.61,303.45Zm0,320.56A149.06,149.06,0,1,1,679.66,475,149.05,149.05,0,0,1,530.61,624Z"/><path class="cls-1" d="M528.36,308.84c-42.15,0-64.2,84.47-64.2,167.91a455.43,455.43,0,0,0,2.81,51l14.46-1.64a477.71,477.71,0,0,1-2.46-49c0-83.81,20.51-151.75,45.8-151.75,18.21,0,33.94,35.23,41.32,86.24A412.12,412.12,0,0,1,571,476.75a420,420,0,0,1-3.87,58C560.29,590,543.91,629,524.77,629c-16.39,0-30.77-28.56-38.86-71.47l-13.81,2.85c11.06,53.6,31.57,84.33,56.26,84.33,42.15,0,64.2-84.47,64.2-167.91S570.51,308.84,528.36,308.84Z"/><path class="cls-1" d="M578,415l-1.59,15c61.18,5.91,105.48,23.2,105.48,43.62,0,25.29-67.94,45.79-151.75,45.79s-151.75-20.5-151.75-45.79,67.94-45.8,151.75-45.8V412.55h-1.85c-82.52.32-166.06,22.47-166.06,64.2,0,42.15,84.47,64.2,167.91,64.2s167.91-22.05,167.91-64.2C698.07,440.59,636.05,421.15,578,415Z"/></g></svg>